<svg width="78" height="70" viewBox="0 0 78 70" fill="none" xmlns="http://www.w3.org/2000/svg">
<g filter="url(#filter0_d)">
<rect x="4" width="70" height="62" rx="6" fill="#111111"/>
</g>
<path d="M8.88066 44H16.6507C16.884 44 17.3273 43.9942 17.9807 43.9825C18.634 43.9708 19.2523 43.9242 19.8357 43.8425C21.784 43.5858 23.4115 42.88 24.7182 41.725C26.0365 40.57 27.0282 39.1 27.6932 37.315C28.3582 35.5183 28.6907 33.5467 28.6907 31.4C28.6907 29.2533 28.3582 27.2875 27.6932 25.5025C27.0282 23.7175 26.0365 22.2475 24.7182 21.0925C23.4115 19.9258 21.784 19.2142 19.8357 18.9575C19.2407 18.8758 18.6223 18.8292 17.9807 18.8175C17.339 18.8058 16.8957 18.8 16.6507 18.8H8.88066V44ZM12.0832 41.025V21.775H16.6507C17.0707 21.775 17.5607 21.7867 18.1207 21.81C18.6807 21.8333 19.1648 21.8858 19.5732 21.9675C20.9382 22.2125 22.0465 22.7842 22.8982 23.6825C23.7498 24.5692 24.374 25.6833 24.7707 27.025C25.179 28.355 25.3832 29.8133 25.3832 31.4C25.3832 32.9517 25.1848 34.3983 24.7882 35.74C24.3915 37.0817 23.7673 38.2017 22.9157 39.1C22.064 39.9983 20.9498 40.5758 19.5732 40.8325C19.1648 40.9142 18.6865 40.9667 18.1382 40.99C17.5898 41.0133 17.094 41.025 16.6507 41.025H12.0832ZM40.8939 44.525C42.7256 44.525 44.3764 44.07 45.8464 43.16C47.3164 42.2383 48.4247 40.9433 49.1714 39.275L46.1789 38.2425C45.0939 40.4592 43.2856 41.5675 40.7539 41.5675C39.0156 41.5675 37.6506 41.0367 36.6589 39.975C35.6789 38.9017 35.1247 37.385 34.9964 35.425H49.4864C49.5797 33.185 49.2881 31.2542 48.6114 29.6325C47.9464 28.0108 46.9431 26.7625 45.6014 25.8875C44.2714 25.0125 42.6556 24.575 40.7539 24.575C38.9222 24.575 37.3239 24.9892 35.9589 25.8175C34.5939 26.6342 33.5322 27.8008 32.7739 29.3175C32.0272 30.8225 31.6539 32.6075 31.6539 34.6725C31.6539 36.6442 32.0331 38.3708 32.7914 39.8525C33.5614 41.3225 34.6406 42.4717 36.0289 43.3C37.4172 44.1167 39.0389 44.525 40.8939 44.525ZM40.8589 27.375C44.0672 27.375 45.8639 29.2242 46.2489 32.9225H35.0489C35.2706 31.1258 35.8714 29.755 36.8514 28.81C37.8314 27.8533 39.1672 27.375 40.8589 27.375ZM57.809 44H60.994L67.854 25.1H64.6865L59.4015 40.0275L54.099 25.1H50.949L57.809 44Z" fill="white"/>
<defs>
<filter id="filter0_d" x="0" y="0" width="78" height="70" filterUnits="userSpaceOnUse" color-interpolation-filters="sRGB">
<feFlood flood-opacity="0" result="BackgroundImageFix"/>
<feColorMatrix in="SourceAlpha" type="matrix" values="0 0 0 0 0 0 0 0 0 0 0 0 0 0 0 0 0 0 127 0"/>
<feOffset dy="4"/>
<feGaussianBlur stdDeviation="2"/>
<feColorMatrix type="matrix" values="0 0 0 0 0 0 0 0 0 0 0 0 0 0 0 0 0 0 0.25 0"/>
<feBlend mode="normal" in2="BackgroundImageFix" result="effect1_dropShadow"/>
<feBlend mode="normal" in="SourceGraphic" in2="effect1_dropShadow" result="shape"/>
</filter>
</defs>
</svg>
