<svg width="73" height="62" viewBox="0 0 73 62" fill="none" xmlns="http://www.w3.org/2000/svg">
<rect x="1" width="70" height="62" rx="2" fill="#111111"/>
<path d="M7.88066 44H15.6507C15.884 44 16.3273 43.9942 16.9807 43.9825C17.634 43.9708 18.2523 43.9242 18.8357 43.8425C20.784 43.5858 22.4115 42.88 23.7182 41.725C25.0365 40.57 26.0282 39.1 26.6932 37.315C27.3582 35.5183 27.6907 33.5467 27.6907 31.4C27.6907 29.2533 27.3582 27.2875 26.6932 25.5025C26.0282 23.7175 25.0365 22.2475 23.7182 21.0925C22.4115 19.9258 20.784 19.2142 18.8357 18.9575C18.2407 18.8758 17.6223 18.8292 16.9807 18.8175C16.339 18.8058 15.8957 18.8 15.6507 18.8H7.88066V44ZM11.0832 41.025V21.775H15.6507C16.0707 21.775 16.5607 21.7867 17.1207 21.81C17.6807 21.8333 18.1648 21.8858 18.5732 21.9675C19.9382 22.2125 21.0465 22.7842 21.8982 23.6825C22.7498 24.5692 23.374 25.6833 23.7707 27.025C24.179 28.355 24.3832 29.8133 24.3832 31.4C24.3832 32.9517 24.1848 34.3983 23.7882 35.74C23.3915 37.0817 22.7673 38.2017 21.9157 39.1C21.064 39.9983 19.9498 40.5758 18.5732 40.8325C18.1648 40.9142 17.6865 40.9667 17.1382 40.99C16.5898 41.0133 16.094 41.025 15.6507 41.025H11.0832ZM39.8939 44.525C41.7256 44.525 43.3764 44.07 44.8464 43.16C46.3164 42.2383 47.4247 40.9433 48.1714 39.275L45.1789 38.2425C44.0939 40.4592 42.2856 41.5675 39.7539 41.5675C38.0156 41.5675 36.6506 41.0367 35.6589 39.975C34.6789 38.9017 34.1247 37.385 33.9964 35.425H48.4864C48.5797 33.185 48.2881 31.2542 47.6114 29.6325C46.9464 28.0108 45.9431 26.7625 44.6014 25.8875C43.2714 25.0125 41.6556 24.575 39.7539 24.575C37.9222 24.575 36.3239 24.9892 34.9589 25.8175C33.5939 26.6342 32.5322 27.8008 31.7739 29.3175C31.0272 30.8225 30.6539 32.6075 30.6539 34.6725C30.6539 36.6442 31.0331 38.3708 31.7914 39.8525C32.5614 41.3225 33.6406 42.4717 35.0289 43.3C36.4172 44.1167 38.0389 44.525 39.8939 44.525ZM39.8589 27.375C43.0672 27.375 44.8639 29.2242 45.2489 32.9225H34.0489C34.2706 31.1258 34.8714 29.755 35.8514 28.81C36.8314 27.8533 38.1672 27.375 39.8589 27.375ZM56.809 44H59.994L66.854 25.1H63.6865L58.4015 40.0275L53.099 25.1H49.949L56.809 44Z" fill="white"/>
</svg>
